<svg xmlns="http://www.w3.org/2000/svg" viewBox="0 0 100 130">
  <rect width="100" height="130" rx="14" fill="#0a1733"/>
  <defs>
    <linearGradient id="g" x1="0" y1="0" x2="0" y2="1">
      <stop offset="0%" stop-color="#f5d27a"/>
      <stop offset="45%" stop-color="#e8b84a"/>
      <stop offset="100%" stop-color="#a87a1f"/>
    </linearGradient>
  </defs>
  <g fill="url(#g)" stroke="#8a6418" stroke-width="0.8" stroke-linejoin="round">
    <circle cx="20" cy="22" r="6"/>
    <circle cx="35" cy="18" r="5"/>
    <circle cx="50" cy="16" r="6"/>
    <circle cx="65" cy="18" r="5"/>
    <circle cx="80" cy="22" r="6"/>
    <path d="M16 26 L20 42 L32 36 L38 42 L50 34 L62 42 L68 36 L80 42 L84 26 Z"/>
    <rect x="18" y="44" width="64" height="6" rx="1"/>
    <path d="M50 45 L55 48 L50 51 L45 48 Z" fill="#3a2a08" stroke="none"/>
    <path d="M28 52 L72 52 L66 68 L34 68 Z"/>
    <path d="M22 72 L78 72 L72 104 L28 104 Z"/>
    <rect x="20" y="106" width="60" height="6" rx="1"/>
    <rect x="14" y="114" width="72" height="8" rx="1.5"/>
  </g>
</svg>
